<svg width="20" height="19" viewBox="0 0 20 19" fill="none" xmlns="http://www.w3.org/2000/svg">
<path fill-rule="evenodd" clip-rule="evenodd" d="M10.0216 1.88895C10.7711 0.883586 11.7842 0.38448 12.9421 0.130455C15.3889 -0.40443 18.131 0.820975 19.319 2.98735C19.7433 3.76373 19.9501 4.60452 19.9908 5.48467C20.0951 7.80667 19.3066 9.83172 17.9612 11.6689C16.3807 13.8281 14.3565 15.4829 12.113 16.8818C11.4925 17.27 10.8436 17.6135 10.1983 17.9587C10.1029 18.0106 9.93669 18.0142 9.83946 17.9659C7.1487 16.5831 4.71782 14.8514 2.73069 12.5258C1.73536 11.3559 0.911514 10.075 0.444786 8.59558C-0.0237099 7.10721 -0.182822 5.57948 0.266227 4.05712C0.865549 2.02849 2.28164 0.819186 4.24579 0.252101C5.90232 -0.22375 7.50228 -0.037703 8.97318 0.91042C9.31439 1.12867 9.58665 1.45962 9.88896 1.74048C9.92962 1.77804 9.96498 1.82455 10.0216 1.88895Z" transform="translate(0 0.699951)" fill="#2C3033"/>
</svg>
