<svg width="134" height="18" viewBox="0 0 134 18" fill="none" xmlns="http://www.w3.org/2000/svg">
<path fill-rule="evenodd" clip-rule="evenodd" d="M10.008 6.26996L8.376 8.18996C7.536 7.39796 6.576 7.13396 5.448 7.13396C4.056 7.13396 3.288 7.56596 3.288 8.30996C3.288 9.07796 3.984 9.50996 5.496 9.60596C7.728 9.74996 10.56 10.254 10.56 13.398C10.56 15.486 8.856 17.286 5.472 17.286C3.6 17.286 1.728 16.974 0 15.174L1.44 13.086C2.28 14.022 4.2 14.718 5.52 14.742C6.624 14.766 7.656 14.19 7.656 13.326C7.656 12.51 6.984 12.174 5.304 12.078C3.072 11.91 0.408 11.094 0.408 8.40596C0.408 5.66996 3.24 4.70996 5.4 4.70996C7.248 4.70996 8.64 5.06996 10.008 6.26996ZM18.1 4.80591C21.868 4.80591 24.292 7.58991 24.292 10.9739C24.292 14.3819 21.964 17.1419 18.124 17.1419C14.284 17.1419 11.98 14.3819 11.98 10.9739C11.98 7.58991 14.332 4.80591 18.1 4.80591ZM18.124 7.46997C16.012 7.46997 14.908 9.19797 14.908 10.974C14.908 12.774 15.988 14.454 18.124 14.454C20.26 14.454 21.34 12.774 21.34 10.974C21.34 9.19797 20.092 7.46997 18.124 7.46997ZM26.48 5.0459H29.408V11.2379C29.408 13.0379 30.392 14.4059 32.264 14.4059C34.064 14.4059 35.288 12.8939 35.288 11.0939V5.0459H38.192V16.9019H35.576L35.384 15.2939C34.16 16.4939 33.032 17.0699 31.376 17.0699C28.544 17.0699 26.48 14.9339 26.48 11.2619V5.0459ZM42.084 2.02196L45.012 1.70996V5.06996H48.276V7.58996H44.988V12.702C44.988 13.83 45.612 14.382 46.524 14.382C46.98 14.382 47.508 14.238 47.94 14.022L48.756 16.518C47.916 16.854 47.22 16.998 46.332 17.022C43.764 17.118 42.084 15.654 42.084 12.702V7.58996H39.876V5.06996H42.084V2.02196ZM50.5601 0.0778809H53.4881V6.65388C54.5441 5.28588 55.8401 4.87788 57.1841 4.87788C60.5441 4.87788 62.0321 7.15788 62.0321 10.6379V16.8779H59.1041V10.6619C59.1041 8.50188 57.9761 7.58988 56.4161 7.58988C54.6881 7.58988 53.4881 9.05388 53.4881 10.8299V16.8779H50.5601V0.0778809ZM75.404 16.8781H72.476V10.5421C72.476 8.98208 71.66 7.56608 70.052 7.56608C68.468 7.56608 67.532 8.98208 67.532 10.5421V16.8781H64.604V5.02208H67.316L67.532 6.46208C68.156 5.26208 69.524 4.83008 70.652 4.83008C72.068 4.83008 73.484 5.40608 74.156 7.03808C75.212 5.35808 76.58 4.87808 78.116 4.87808C81.476 4.87808 83.132 6.94208 83.132 10.4941V16.8781H80.204V10.4941C80.204 8.93408 79.556 7.61408 77.972 7.61408C76.388 7.61408 75.404 8.98208 75.404 10.5421V16.8781ZM97.9439 12.006H88.7039C88.8959 13.47 90.1679 14.526 92.2319 14.526C93.3119 14.526 94.7279 14.118 95.3999 13.422L97.2719 15.27C96.0239 16.566 93.9839 17.19 92.1839 17.19C88.1039 17.19 85.6799 14.67 85.6799 10.878C85.6799 7.27804 88.1279 4.68604 91.9679 4.68604C95.9279 4.68604 98.3999 7.13404 97.9439 12.006ZM88.752 9.58208H95.136C94.944 8.04608 93.7439 7.27808 92.0639 7.27808C90.4799 7.27808 89.184 8.04608 88.752 9.58208ZM106.036 7.4939C104.164 7.4939 102.676 8.8139 102.676 10.9499C102.676 13.0139 104.164 14.4299 106.036 14.4299C107.884 14.4299 109.468 13.0859 109.468 10.9499C109.468 8.8859 107.884 7.4939 106.036 7.4939ZM109.66 0.102051H112.588V16.878H109.852L109.66 15.2461C108.748 16.6621 107.284 17.1421 105.844 17.1421C102.364 17.1421 99.748 14.8381 99.748 10.9501C99.748 6.87005 102.316 4.75805 105.772 4.75805C107.02 4.75805 108.964 5.43005 109.66 6.65405V0.102051ZM118.16 4.99805V16.878H115.232V4.99805H118.16ZM114.968 1.71C114.968 -0.57 118.424 -0.57 118.424 1.71C118.424 3.99 114.968 3.99 114.968 1.71ZM130.188 6.67801L130.284 5.04601H133.092V16.878H130.332L130.188 15.15C129.516 16.542 127.668 17.214 126.348 17.238C122.844 17.262 120.252 15.102 120.252 10.95C120.252 6.87001 122.964 4.73401 126.42 4.75801C128.004 4.75801 129.516 5.50201 130.188 6.67801ZM126.684 7.37402C124.74 7.37402 123.18 8.69402 123.18 10.95C123.18 13.206 124.74 14.55 126.684 14.55C131.292 14.55 131.292 7.37402 126.684 7.37402Z" transform="translate(0.354004 0.12207)" fill="white"/>
</svg>
